<?xml version="1.0" encoding="UTF-8" standalone="no"?>
<!-- Created with Inkscape (http://www.inkscape.org/) -->

<svg
   xmlns:dc="http://purl.org/dc/elements/1.1/"
   xmlns:cc="http://creativecommons.org/ns#"
   xmlns:rdf="http://www.w3.org/1999/02/22-rdf-syntax-ns#"
   xmlns:svg="http://www.w3.org/2000/svg"
   xmlns="http://www.w3.org/2000/svg"
   version="1.1"
   width="620.01"
   height="212.9"
   id="svg2">
  <defs
     id="defs4" />
  <metadata
     id="metadata7">
    <rdf:RDF>
      <cc:Work
         rdf:about="">
        <dc:format>image/svg+xml</dc:format>
        <dc:type
           rdf:resource="http://purl.org/dc/dcmitype/StillImage" />
        <dc:title></dc:title>
      </cc:Work>
    </rdf:RDF>
  </metadata>
  <g
     transform="translate(1349.7,-2066.6)"
     id="layer1">
    <path
       d="m -806.78,2264.2 0,-5.3 0.64,0 0.63,0 0,2.2 0,2.2 2.74,0 2.73,0 0,-2.2 0,-2.2 0.64,0 0.64,0 0,5.3 0,5.3 -0.64,0 -0.64,0 0,-2.5 0,-2.4 -2.73,0 -2.74,0 0,2.4 0,2.5 -0.63,0 -0.64,0 0,-5.3 z m 61.8,-3.8 c 0,-0.6 0.6,-1.4 2.28,-3 1.75,-1.7 1.92,-1.9 1.92,-2.5 0,-1.6 -2.61,-2 -2.99,-0.4 -0.1,0.3 -0.22,0.4 -0.53,0.4 -0.53,-0.1 -0.59,-0.5 -0.13,-1.2 0.47,-0.8 1.46,-1.2 2.52,-1.1 1.03,0.1 1.71,0.6 2,1.5 0.38,1.2 -0.1,2 -1.99,3.8 -0.89,0.8 -1.62,1.5 -1.62,1.6 0,0.1 0.86,0.2 1.92,0.2 l 1.91,0 0,0.4 0,0.5 -2.64,0 c -1.52,0 -2.65,-0.1 -2.65,-0.2 z m -474.42,-2.2 c 0,-0.6 0.6,-1.4 2.3,-3 1.8,-1.7 1.9,-1.9 1.9,-2.5 0,-1.6 -2.6,-2 -3,-0.4 -0.1,0.3 -0.2,0.4 -0.5,0.4 -0.5,-0.1 -0.6,-0.5 -0.1,-1.2 0.5,-0.8 1.4,-1.2 2.5,-1.1 1,0.1 1.7,0.6 2,1.5 0.4,1.2 0,2 -2,3.8 -0.9,0.8 -1.6,1.5 -1.6,1.6 0,0.1 0.9,0.2 1.9,0.2 l 1.9,0 0,0.4 0,0.5 -2.6,0 c -1.5,0 -2.7,-0.1 -2.7,-0.2 z m 412.44,-6 0,-5.3 0.69,0 0.71,0 2.75,4.1 2.77,4.2 0,-4.2 0,-4.1 0.64,0 0.64,0 0,5.3 0,5.3 -0.67,0 -0.7,0 -2.73,-4.2 -2.74,-4.1 0,4.1 0,4.2 -0.64,0 -0.63,0 0,-5.3 z m 41.75,0 0,-5.3 0.69,0 0.71,0 2.75,4.1 2.77,4.2 0,-4.2 0,-4.1 0.64,0 0.64,0 0,5.3 0,5.3 -0.67,0 -0.7,0 -2.73,-4.2 -2.74,-4.1 -0.1,4.1 0,4.2 -0.64,0 -0.63,0 0,-5.3 z m 10.75,0 0,-5.3 0.64,0 0.64,0 0,2.2 0,2.2 2.73,0 2.74,0 0,-2.2 0,-2.2 0.64,0 0.63,0 0,5.3 0,5.3 -0.63,0 -0.64,0 0,-2.5 0,-2.5 -2.74,0 -2.73,0 0,2.5 0,2.5 -0.64,0 -0.64,0 0,-5.3 z m -537.34,-2.2 0,-5.3 0.7,0 0.6,0 0,2.2 0,2.2 2.8,0 2.7,0 0,-2.2 0,-2.2 0.6,0 0.7,0 0,5.3 0,5.3 -0.7,0 -0.6,0 0,-2.5 0,-2.4 -2.7,0 -2.8,0 0,2.4 0,2.5 -0.6,0 -0.7,0 0,-5.3 z m 10.3,0 0,-5.3 0.7,0 0.7,0 2.7,4.2 2.8,4.1 0,-4.1 0,-4.2 0.6,0 0.7,0 0,5.3 0,5.3 -0.7,0 -0.7,0 -2.7,-4.2 -2.8,-4.1 0,4.1 0,4.2 -0.6,0 -0.6,0 0,-5.3 z m 41.9,0 0,-5.3 0.7,0 0.7,0 2.8,4.2 2.7,4.1 0,-4.1 0,-4.2 0.7,0 0.6,0 0,5.3 0,5.3 -0.7,0 -0.7,0 -2.7,-4.2 -2.7,-4.1 -0.1,4.1 0,4.2 -0.7,0 -0.6,0 0,-5.3 z m 10.6,0 0,-5.3 0.6,0 0.6,0 0,2.2 0,2.2 2.8,0 2.7,0 0,-2.2 0,-2.2 0.7,0 0.6,0 0,5.3 0,5.3 -0.6,0 -0.7,0 0,-2.5 0,-2.4 -2.7,0 -2.8,0 0,2.4 0,2.5 -0.6,0 -0.6,0 0,-5.3 z m 412.28,-5.8 -7.47,-4.4 -0.1,-12.1 -0.1,-12.1 -10.3,-5.9 -10.3,-6 0,-12.4 0,-12.4 7.48,-4.4 c 7.44,-4.3 7.47,-4.3 7.78,-3.9 0.26,0.3 0.28,0.4 0.1,0.5 -0.13,0.2 -3.45,2.1 -7.37,4.3 l -7.13,4.1 0,11.8 0,11.7 10.47,6.1 10.46,6 0.1,12.1 0,12.1 7.15,4.1 c 3.94,2.3 7.16,4.2 7.16,4.3 0,0.1 -0.11,0.3 -0.22,0.5 -0.22,0.3 -1.09,-0.2 -7.71,-4 z m 41.99,0.1 -7.24,-4.2 -7.16,4.2 -7.15,4.1 -0.33,-0.4 -0.33,-0.4 5.51,-3.2 c 3.04,-1.8 5.87,-3.4 6.31,-3.6 l 0.76,-0.5 0,-8.9 0,-8.9 0.55,0 0.55,0 0,8.5 c 0,4.8 0.1,8.6 0.14,8.6 0.1,-0.1 0.35,-0.2 0.64,-0.3 0.42,-0.3 0.57,-0.3 1,0 0.28,0.1 0.55,0.2 0.64,0.3 0.1,0 0.13,-3.8 0.13,-8.6 l 0,-8.5 0.55,0 0.54,0 0,8.9 0.1,8.9 6.24,3.6 c 3.45,2 6.25,3.7 6.23,3.8 0,0.1 -0.1,0.3 -0.21,0.5 -0.2,0.3 -1.04,-0.2 -7.46,-3.9 z m -495.57,3.2 c -0.1,-0.4 -0.1,-0.5 0,-0.6 0.2,-0.1 3.5,-2 7.5,-4.3 l 7.1,-4.2 -0.6,-0.3 c -0.6,-0.3 -0.7,-0.4 -0.7,-1.1 0,-0.4 0,-0.7 -0.1,-0.7 -0.1,0 -3.3,1.9 -7.3,4.2 -4,2.3 -7.4,4.2 -7.5,4.2 -0.2,0 -0.5,-0.7 -0.3,-0.9 0.1,0 3.5,-2 7.6,-4.4 l 7.5,-4.3 0,-7.4 0,-7.4 0.5,0 0.4,0 0,8.4 0,8.4 7.3,4.2 c 6.9,4 7.2,4.2 7,4.6 -0.1,0.2 -0.2,0.4 -0.2,0.4 0,0 -2.9,-1.5 -6.3,-3.5 -3.4,-2 -6.3,-3.6 -6.5,-3.6 -0.1,0 -8.1,4.5 -13.9,7.9 l -1.5,0.9 -0.2,-0.5 z m 218.7,-30.3 -10.6,-6.1 0,-12.1 -0.1,-12.1 -10.3,-6 -10.4,-5.9 0,-12.4 0,-12.5 9.5,-5.4 9.4,-5.5 0,-8.9 0,-8.8 0.6,0 0.5,0 0,8.4 c 0,4.7 0,8.5 0.1,8.5 0.1,0 0.3,-0.1 0.6,-0.3 0.5,-0.2 0.6,-0.2 1.1,0 0.3,0.2 0.6,0.3 0.7,0.3 0,0 0.1,-3.8 0.1,-8.5 l 0,-8.4 0.5,0 0.6,0 0,8.8 0,8.9 6.1,3.6 c 3.4,2 6.3,3.7 6.3,3.7 0,0.2 0,0.4 -0.2,0.5 -0.2,0.3 -0.8,0 -7.5,-3.8 l -7.2,-4.2 -10.2,5.9 -10.1,5.8 -0.1,11.8 0,11.8 9.6,5.5 c 5.2,3.1 9.8,5.7 10.2,5.9 l 0.6,0.3 10.1,-5.8 c 5.5,-3.2 10.2,-5.9 10.4,-6 0.3,-0.2 1.8,0.6 11,5.9 l 10.7,6.2 0,12.4 0.1,12.4 -10.6,6.1 c -5.9,3.3 -10.7,6.1 -10.8,6.1 -0.1,0 -5,-2.7 -10.8,-6.1 z m 24.4,-2.8 6.6,-3.9 0,-11.8 0,-11.8 -10,-5.8 c -5.5,-3.2 -10.1,-5.8 -10.2,-5.9 -0.1,0 -4.7,2.7 -10.2,5.8 l -10,5.8 0,11.9 0,11.8 10.1,5.9 10.1,5.8 3.5,-2 c 1.9,-1.1 6.4,-3.7 10.1,-5.8 z m -13.6,4.2 c -0.2,-0.4 0.1,-0.6 8.4,-5.4 7.8,-4.5 8.6,-4.9 8.8,-4.6 0.1,0.1 0.2,0.4 0.2,0.4 0,0.2 -16.9,10 -17.1,10 -0.1,0 -0.2,-0.2 -0.3,-0.4 z m -17.8,-19.9 0,-10 0.6,0 0.5,0 0,10 0,9.9 -0.5,0 -0.6,0 0,-9.9 z m 26.1,-14.6 c -8.1,-4.6 -8.5,-4.9 -8.3,-5.3 0.1,-0.2 0.2,-0.4 0.2,-0.4 0,-0.1 3.9,2.1 8.7,4.9 8.6,4.9 8.6,5 8.4,5.4 -0.2,0.2 -0.3,0.4 -0.4,0.4 -0.1,0 -3.9,-2.2 -8.6,-5 z m 246.32,31.8 0,-5.3 0.69,0 0.71,0 2.76,4.2 2.77,4.1 0,-4.1 0,-4.2 0.64,0 0.63,0 0,5.3 0,5.3 -0.67,0 -0.69,0 -2.74,-4.2 -2.73,-4.1 -0.1,4.1 0,4.2 -0.64,0 -0.64,0 0,-5.3 z m 10.76,0 0,-5.3 0.63,0 0.64,0 0,2.2 0,2.2 2.74,0 2.73,0 0,-2.2 0,-2.2 0.64,0 0.64,0 0,5.3 0,5.3 -0.64,0 -0.64,0 0,-2.5 0,-2.4 -2.73,0 -2.74,0 0,2.4 0,2.5 -0.64,0 -0.63,0 0,-5.3 z m -485.18,-2 0,-5.3 0.7,0 0.7,0 2.8,4.1 2.8,4.2 0,-4.2 0,-4.1 0.6,0 0.6,0 0,5.3 0,5.3 -0.7,0 -0.6,0 -2.8,-4.2 -2.7,-4.1 0,4.1 -0.1,4.2 -0.6,0 -0.7,0 0,-5.3 z m 10.8,0 0,-5.3 0.6,0 0.7,0 0,2.2 0,2.2 2.7,0 2.7,0 0,-2.2 0,-2.2 0.7,0 0.6,0 0,5.3 0,5.3 -0.6,0 -0.7,0 0,-2.5 0,-2.4 -2.7,0 -2.7,0 0,2.4 0,2.5 -0.7,0 -0.6,0 0,-5.3 z m -20.5,-8 -7.5,-4.3 -0.1,-12.2 0,-12.1 -10.4,-5.9 -10.3,-6 0,-12.4 0,-12.4 9.4,-5.4 9.4,-5.5 0.1,-8.8 0,-8.7 0.5,0 0.6,0 0,8.3 c 0,4.7 0,8.4 0.1,8.4 0,0 0.3,-0.1 0.6,-0.3 0.5,-0.2 0.6,-0.2 1.1,0 0.2,0.1 0.5,0.3 0.6,0.3 0.1,0 0.1,-3.7 0.1,-8.3 l 0,-8.4 0.6,0 0.5,0 0,8.7 0,8.8 6.3,3.6 c 5.8,3.4 6.2,3.6 6,4 -0.1,0.2 -0.3,0.4 -0.3,0.4 -0.1,0 -3.4,-1.9 -7.3,-4.1 l -7.1,-4.1 -10.2,5.9 -10.2,5.8 0,11.8 0,11.8 10.4,6 10.5,6 0.1,12.1 0,12.1 7.2,4.1 c 3.9,2.3 7.1,4.2 7.1,4.3 0,0.1 -0.1,0.4 -0.2,0.5 -0.2,0.3 -1.1,-0.2 -7.7,-4 z m 382.33,3.2 c -0.38,-0.2 -0.95,-0.5 -1.27,-0.7 -2.5,-1.7 -2.85,-6.4 -0.64,-8.6 1.02,-1 1.84,-1.3 3.52,-1.3 1.73,0 2.6,0.4 3.63,1.6 1.73,2 1.67,5.8 -0.11,7.7 -1.24,1.3 -3.41,1.9 -5.13,1.3 z m 3.16,-1.5 c 1.42,-0.7 2.13,-2.2 1.95,-4.2 -0.18,-1.8 -0.84,-2.9 -2.19,-3.5 -1.73,-0.7 -3.72,0.1 -4.52,1.9 -0.46,1 -0.46,3.2 0,4.2 0.36,0.8 1.37,1.7 2.06,1.9 0.86,0.3 1.89,0.2 2.7,-0.3 z m -3.87,-19.7 0,-9.4 -9.26,-5.4 -9.25,-5.3 -6.76,4.9 c -3.72,2.7 -6.78,4.9 -6.8,4.9 -0.15,-0.2 -2.14,-3.7 -2.17,-3.9 0,0 3.37,-1.6 7.53,-3.5 l 7.56,-3.3 0.1,-12.1 0.1,-12.1 10.3,-5.9 10.3,-6 0.1,-12.1 0.1,-12.1 7.02,-4 c 3.86,-2.3 8.68,-5.1 10.7,-6.2 l 3.68,-2.1 10.69,6.1 10.66,6.2 0,12.4 0,12.4 -10.6,6.1 c -5.81,3.3 -10.68,6.1 -10.79,6.1 -0.11,0 -4.83,-2.7 -10.5,-6 -8.55,-4.9 -10.36,-5.9 -10.67,-5.8 -0.2,0.1 -4.76,2.7 -10.12,5.8 l -9.75,5.7 0,11.8 0,11.8 9.97,5.8 c 5.49,3.1 10.14,5.7 10.34,5.7 0.2,0 3.52,-1.8 7.38,-4 6.91,-4 7,-4.1 7.24,-3.7 0.29,0.6 0.75,0.2 -6.4,4.4 l -5.85,3.4 -0.1,9.4 0,9.4 -0.55,0 -0.55,0 0,-9 c 0,-5 0,-9 -0.1,-9 -0.1,0 -0.35,0.1 -0.64,0.2 -0.49,0.3 -0.58,0.3 -1.16,-0.1 l -0.66,-0.4 0,9.2 0,9.1 -0.46,0 -0.45,0 0,-9.4 z m 33.44,-51.3 10.17,-5.9 0,-11.8 -0.1,-11.7 -10.17,-5.9 -10.19,-5.9 -10.14,5.9 -10.16,5.9 0,11.7 0,11.8 10.07,5.9 c 5.54,3.2 10.15,5.8 10.24,5.8 0.1,0 4.76,-2.6 10.36,-5.8 z m -19.18,-2.2 c -4.67,-2.7 -8.5,-5 -8.53,-5.1 0,0 0.1,-0.3 0.2,-0.5 0.23,-0.3 0.74,0 8.71,4.6 4.65,2.7 8.53,4.9 8.61,5 0.14,0.1 -0.22,0.9 -0.42,0.9 -0.1,0 -3.9,-2.2 -8.57,-4.9 z m 25.71,-15.4 0,-9.9 0.45,0 0.46,0 0,9.9 0,9.9 -0.46,0 -0.45,0 0,-9.9 z m -34.08,-10 c -0.22,-0.3 -0.2,-0.4 0.1,-0.6 0.17,-0.1 4.05,-2.4 8.61,-5 7.82,-4.5 8.31,-4.8 8.55,-4.5 0.15,0.2 0.25,0.4 0.25,0.5 0,0.1 -16.62,9.8 -17.11,10 -0.1,0 -0.22,-0.2 -0.37,-0.4 z m -49.24,82.8 0,-5.3 0.64,0 0.63,0 0,2.2 0,2.2 2.74,0 2.73,0 0,-2.2 0,-2.2 0.64,0 0.64,0 0,5.3 0,5.3 -0.64,0 -0.64,0 0,-2.4 0,-2.5 -2.73,0 -2.74,0 0,2.5 0,2.4 -0.63,0 -0.64,0 0,-5.3 z m -38.53,1.8 c -0.38,-0.2 -0.94,-0.5 -1.27,-0.7 -2.5,-1.7 -2.85,-6.4 -0.64,-8.6 1.02,-1 1.84,-1.3 3.52,-1.3 1.73,0 2.61,0.4 3.63,1.6 1.73,2 1.67,5.8 -0.11,7.7 -1.24,1.3 -3.41,1.9 -5.13,1.3 z m 3.16,-1.5 c 1.42,-0.7 2.13,-2.2 1.95,-4.2 -0.18,-1.8 -0.84,-2.9 -2.19,-3.5 -1.73,-0.7 -3.72,0.1 -4.52,1.9 -0.46,1 -0.46,3.2 0,4.2 0.36,0.8 1.37,1.7 2.06,1.9 0.86,0.3 1.9,0.2 2.7,-0.3 z m 4.32,-7.2 c -0.29,-0.3 0,-0.6 6.25,-6.2 3.61,-3.2 6.57,-6 6.57,-6 0,-0.1 -0.28,-0.2 -0.59,-0.3 -0.49,-0.1 -0.64,-0.3 -0.76,-0.9 -0.1,-0.3 -0.22,-0.6 -0.28,-0.6 -0.1,0 -2.53,2.2 -5.48,4.8 -2.96,2.7 -5.93,5.3 -6.59,5.9 l -1.22,1.1 -0.27,-0.4 c -0.29,-0.4 -0.24,-0.5 6.54,-6.6 5.64,-5.1 6.82,-6.2 6.75,-6.5 0,-0.3 -1.04,-5 -2.22,-10.5 -1.17,-5.5 -2.19,-10 -2.28,-10.1 -0.1,0 -3.58,-1.2 -7.77,-2.5 -4.19,-1.4 -7.66,-2.5 -7.69,-2.5 -0.13,-0.1 1.76,-4.2 1.93,-4.1 0.1,0 3.26,1.8 7.05,4 l 6.93,4 0.48,-0.5 c 0.27,-0.3 3.51,-3.8 7.2,-7.9 3.68,-4.1 7,-7.8 7.35,-8.2 l 0.61,-0.7 -5.77,-9.9 c -3.18,-5.5 -5.84,-10.1 -5.89,-10.2 -0.17,-0.1 -22.5,4.6 -22.76,4.9 -0.11,0.1 -0.71,3.9 -1.33,8.5 -1.36,10.1 -1.22,9.3 -1.77,9.3 -0.29,0 -0.43,-0.1 -0.43,-0.4 0,-0.3 2.4,-18.3 2.46,-18.4 0,0 5.47,-1.2 12.12,-2.6 11.62,-2.5 12.11,-2.5 12.34,-2.2 0.15,0.2 2.81,4.7 5.93,10.2 3.14,5.4 5.83,10.1 6.02,10.4 l 0.34,0.6 -7.6,8.4 c -4.17,4.7 -7.84,8.7 -8.11,9 l -0.51,0.6 2.44,11.4 c 1.35,6.3 2.52,11.5 2.63,11.6 0.1,0.1 3.82,1.3 8.29,2.7 8.24,2.7 8.42,2.8 7.99,3.5 -0.1,0.1 -2.14,-0.5 -7.46,-2.2 l -7.31,-2.4 -6.77,6.1 c -3.71,3.3 -6.83,6.1 -6.91,6.1 -0.1,0.1 -0.29,-0.1 -0.45,-0.3 z m 30.86,-5.1 0,-5.3 0.7,0 0.71,0 2.75,4.2 2.77,4.1 0,-4.1 0,-4.2 0.64,0 0.64,0 0,5.3 0,5.3 -0.68,0 -0.69,0 -2.73,-4.2 -2.74,-4.1 0,4.1 0,4.2 -0.64,0 -0.64,0 0,-5.3 z m -193.68,0.5 c -0.4,-0.2 -0.9,-0.5 -1.3,-0.7 -2.5,-1.7 -2.8,-6.4 -0.6,-8.6 1,-1 1.8,-1.3 3.5,-1.3 1.7,0 2.6,0.4 3.6,1.6 1.8,2 1.7,5.7 -0.1,7.7 -1.2,1.3 -3.4,1.9 -5.1,1.3 z m 3.2,-1.5 c 1.4,-0.7 2.1,-2.2 1.9,-4.2 -0.2,-1.8 -0.8,-2.9 -2.2,-3.5 -1.7,-0.7 -3.7,0.1 -4.5,1.9 -0.5,1 -0.5,3.2 0,4.2 0.4,0.8 1.4,1.7 2.1,1.9 0.8,0.2 1.9,0.2 2.7,-0.3 z m 122.1,1.5 c -0.4,-0.2 -1,-0.5 -1.3,-0.7 -2.5,-1.7 -2.9,-6.4 -0.7,-8.6 1.1,-1 1.9,-1.3 3.6,-1.3 1.7,0 2.6,0.4 3.6,1.6 1.7,2 1.7,5.7 -0.1,7.7 -1.3,1.3 -3.4,1.9 -5.1,1.3 z m 3.1,-1.5 c 1.4,-0.7 2.1,-2.2 2,-4.2 -0.2,-1.8 -0.9,-2.9 -2.2,-3.5 -1.8,-0.7 -3.7,0.1 -4.5,1.9 -0.5,1 -0.5,3.2 0,4.2 0.3,0.8 1.3,1.7 2,1.9 0.9,0.2 1.9,0.2 2.7,-0.3 z m 149.81,-0.7 c -0.33,-0.2 -0.33,-0.3 0,-0.7 0.29,-0.5 0.33,-0.5 0.75,-0.2 0.4,0.2 0.4,0.3 0.12,0.7 -0.32,0.5 -0.42,0.5 -0.85,0.2 z m -2.98,-1.2 c -0.34,-0.1 -0.29,-0.3 0.24,-1.2 l 0.49,-0.9 0.37,0.4 0.38,0.4 -0.38,0.7 c -0.4,0.7 -0.66,0.8 -1.1,0.6 z m -3.11,-1.2 c -0.31,-0.2 1.05,-2.7 1.4,-2.6 0.6,0.1 0.62,0.6 0,1.7 -0.55,0.9 -0.82,1.1 -1.42,0.9 z m -2.72,-1.2 c -0.24,-0.1 -0.42,-0.2 -0.42,-0.2 0,-0.1 0.42,-0.8 0.93,-1.7 0.82,-1.4 0.95,-1.5 1.28,-1.4 0.47,0.3 0.43,0.4 -0.29,1.7 -0.92,1.7 -1.03,1.8 -1.5,1.6 z m -3.01,-1.2 c -0.18,0 -0.33,-0.2 -0.33,-0.3 0,-0.1 0.5,-1 1.12,-2 1.11,-1.9 1.11,-1.9 1.51,-1.6 l 0.4,0.3 -1.08,1.8 c -0.58,1.1 -1.13,1.9 -1.18,1.9 -0.1,0 -0.27,-0.1 -0.44,-0.1 z m 34.15,-0.3 c -2.63,-0.9 -3.9,-4.8 -2.55,-8 1.4,-3.2 6.32,-3.6 7.98,-0.7 0.51,1 0.46,1.2 -0.34,1.3 -0.39,0.1 -0.51,0 -0.82,-0.5 -0.75,-1.4 -2.26,-1.9 -3.83,-1.3 -1.41,0.6 -2.1,1.9 -2.1,4 0,2 0.62,3.2 1.9,3.8 1.82,0.8 3.84,0 4.39,-1.8 0.11,-0.4 0.38,-0.4 1.15,-0.2 l 0.44,0.1 -0.62,1.2 c -0.82,1.5 -1.79,2.2 -3.56,2.3 -0.76,0 -1.55,-0.1 -2.04,-0.2 z m 10.87,0 c -0.39,-0.2 -0.95,-0.5 -1.28,-0.7 -2.5,-1.7 -2.84,-6.4 -0.64,-8.6 1.02,-1 1.84,-1.3 3.52,-1.3 1.73,0 2.61,0.4 3.63,1.6 1.73,2 1.68,5.8 -0.11,7.7 -1.24,1.3 -3.41,1.9 -5.12,1.3 z m 3.15,-1.5 c 1.42,-0.7 2.13,-2.2 1.95,-4.2 -0.18,-1.8 -0.84,-2.9 -2.19,-3.5 -1.73,-0.7 -3.72,0.1 -4.52,1.9 -0.45,1 -0.45,3.2 0,4.2 0.37,0.8 1.37,1.7 2.06,1.9 0.86,0.3 1.9,0.2 2.7,-0.3 z m 8.15,1.5 c -0.38,-0.2 -0.95,-0.5 -1.28,-0.7 -2.49,-1.7 -2.84,-6.4 -0.63,-8.6 1.02,-1 1.84,-1.3 3.51,-1.3 1.74,0 2.61,0.4 3.63,1.6 1.73,2 1.68,5.8 -0.11,7.7 -1.24,1.3 -3.41,1.9 -5.12,1.3 z m 3.15,-1.5 c 1.43,-0.7 2.14,-2.2 1.95,-4.2 -0.18,-1.8 -0.83,-2.9 -2.18,-3.5 -1.74,-0.7 -3.72,0.1 -4.52,1.9 -0.46,1 -0.46,3.2 0,4.2 0.36,0.8 1.36,1.7 2.06,1.9 0.85,0.3 1.89,0.2 2.69,-0.3 z m -69.64,-3.7 0,-5.3 0.69,0 0.71,0 2.76,4.1 2.77,4.2 0,-4.2 0,-4.1 0.64,0 0.63,0 0,5.3 0,5.3 -0.67,0 -0.69,0 -2.74,-4.2 -2.73,-4.1 -0.1,4.1 0,4.2 -0.64,0 -0.64,0 0,-5.3 z m 74.93,0 0,-5.3 0.64,0 0.64,0 0,2.2 0,2.2 2.73,0 2.74,0 0,-2.2 0,-2.2 0.63,0 0.64,0 0,5.3 0,5.3 -0.64,0 -0.63,0 0,-2.5 0,-2.5 -2.74,0 -2.73,0 0,2.5 0,2.5 -0.64,0 -0.64,0 0,-5.3 z m -447.65,0.1 c -6.5,-1.4 -11.9,-2.5 -11.9,-2.6 -0.1,0 -2.4,-16.6 -2.4,-17.1 0,-0.5 0.8,-0.4 1,0.1 0,0.2 0.5,3.9 1.1,8.2 0.6,4.3 1.2,7.9 1.2,7.9 0.1,0.1 22.8,5 22.8,4.9 0.3,-0.3 11.6,-20 11.6,-20.1 0,-0.1 -3.6,-4.1 -7.9,-9 -4.4,-4.8 -8,-8.9 -8,-9.1 0,-0.2 1,-4.9 2.2,-10.6 1.2,-5.6 2.2,-10.4 2.2,-10.5 0,-0.2 -2.9,-2.9 -6.4,-6 -3.5,-3.2 -6.4,-5.8 -6.4,-5.9 0,0 0.2,-0.2 0.4,-0.4 0.3,-0.3 0.7,0.1 6.5,5.3 3.4,3 6.2,5.5 6.2,5.4 0.1,0 0.2,-0.3 0.2,-0.6 0.1,-0.5 0.3,-0.7 0.7,-0.8 0.4,-0.1 0.7,-0.3 0.7,-0.3 0,-0.1 -2.6,-2.5 -5.8,-5.4 -3.2,-2.9 -6,-5.4 -6.2,-5.6 -0.4,-0.3 -0.4,-0.3 0,-0.7 0.4,-0.3 0.4,-0.3 5.7,4.5 3,2.7 5.9,5.3 6.5,5.8 l 1.1,1 7.3,-2.3 c 4,-1.3 7.3,-2.4 7.3,-2.4 0,0.1 0.1,0.3 0.2,0.5 l 0.1,0.5 -8.2,2.6 c -4.4,1.5 -8.2,2.7 -8.2,2.8 -0.2,0.1 -5,22.4 -5,22.9 0,0.1 3.6,4.2 8.1,9.1 4.4,4.9 8,9 7.9,9.1 0,0.1 -2.8,5 -6.1,10.8 -4,6.9 -6.2,10.6 -6.4,10.6 -0.2,0 -5.6,-1.2 -12.1,-2.6 z m 72.4,-4.7 0,-5.3 0.7,0 0.6,0 0,2.2 0,2.2 2.8,0 2.7,0 0,-2.2 0,-2.2 0.6,0 0.7,0 0,5.3 0,5.3 -0.7,0 -0.6,0 0,-2.5 0,-2.4 -2.7,0 -2.8,0 0,2.4 0,2.5 -0.6,0 -0.7,0 0,-5.3 z m 43.2,-4.1 0,-9.5 -9.1,-5.2 c -5,-2.9 -9.2,-5.3 -9.3,-5.3 -0.1,0 -3.3,1.8 -7.1,4 -3.7,2.2 -6.9,4 -7.1,4 -0.2,0.1 -0.4,-0.1 -0.5,-0.3 -0.3,-0.4 -1.1,0.1 7.6,-4.9 3.9,-2.2 7.1,-4 7.2,-4 0.2,0.1 4.8,2.8 10.4,6 5.6,3.2 10.3,5.9 10.4,5.9 0.1,0 3.3,-1.8 7.2,-4.1 3.8,-2.2 7,-4 7.1,-4 0.1,0 0.3,0.2 0.4,0.4 0.2,0.3 0.1,0.4 -0.5,0.7 -0.4,0.3 -3.2,1.9 -6.2,3.7 l -5.6,3.2 -0.1,9.4 0,9.4 -0.5,0 -0.6,0 0,-9 c 0,-5 0,-9.1 -0.1,-9 -0.1,0 -0.4,0.2 -0.7,0.3 -0.4,0.2 -0.5,0.2 -1.1,-0.1 l -0.6,-0.4 0,9.1 0,9.1 -0.6,0 -0.5,0 0,-9.4 z m 82.1,4.1 0,-5.3 0.6,0 0.7,0 0,2.2 0,2.2 2.7,0 2.7,0 0,-2.2 0,-2.2 0.7,0 0.6,0 0,5.3 0,5.3 -0.6,0 -0.7,0 0,-2.5 0,-2.4 -2.7,0 -2.7,0 0,2.4 0,2.5 -0.7,0 -0.6,0 0,-5.3 z m 43.3,-4.1 0,-9.4 -6.4,-3.8 c -3.6,-2 -7.7,-4.4 -9.3,-5.3 l -2.7,-1.6 -6.7,4.9 c -3.7,2.7 -6.8,4.9 -6.9,4.9 -0.1,0 -0.6,-0.9 -1.2,-2 -0.9,-1.6 -1,-1.9 -0.8,-2.1 0.2,0 3.6,-1.5 7.6,-3.3 l 7.3,-3.3 0.1,-12 0,-12.1 7.5,-4.3 c 7,-4 7.5,-4.3 7.8,-4 0.1,0.2 0.2,0.4 0.2,0.5 0,0 -3.2,2 -7.2,4.2 l -7.2,4.2 0,11.8 0,11.7 10.1,5.9 c 5.6,3.2 10.2,5.8 10.3,5.8 0.1,-0.1 3.4,-1.9 7.3,-4.2 3.95,-2.3 7.16,-4.1 7.19,-4 0,0 0.13,0.2 0.26,0.4 0.18,0.4 -0.1,0.6 -6.15,4.1 l -6.4,3.7 0,9.3 0,9.4 -0.5,0 -0.4,0 0,-9.1 0,-9.1 -0.7,0.4 c -0.6,0.3 -0.7,0.3 -1.1,0.1 -0.3,-0.1 -0.6,-0.3 -0.7,-0.3 -0.1,-0.1 -0.1,4 -0.1,9 l 0,9 -0.5,0 -0.6,0 0,-9.4 z m 131.9,-3.5 0,-5.3 0.64,0 0.64,0 0,2.2 0,2.1 2.73,0 2.74,0 0,-2.1 0,-2.2 0.64,0 0.63,0 0,5.3 0,5.2 -0.63,0 -0.64,0 0,-2.4 0,-2.5 -2.74,0 -2.73,0 0,2.5 0,2.4 -0.64,0 -0.64,0 0,-5.2 z m -339.9,0.6 c -0.4,-0.1 -0.9,-0.4 -1.3,-0.6 -2.5,-1.8 -2.8,-6.4 -0.6,-8.7 1,-1 1.8,-1.3 3.5,-1.3 1.7,0 2.6,0.4 3.6,1.6 1.8,2 1.7,5.8 -0.1,7.7 -1.2,1.4 -3.4,1.9 -5.1,1.3 z m 3.2,-1.4 c 1.4,-0.7 2.1,-2.3 1.9,-4.3 -0.2,-1.8 -0.8,-2.9 -2.2,-3.4 -1.7,-0.8 -3.7,0 -4.5,1.8 -0.5,1 -0.5,3.2 0,4.2 0.4,0.8 1.4,1.7 2.1,1.9 0.8,0.3 1.9,0.2 2.7,-0.2 z m 36.1,-3.8 0,-5.3 0.7,0 0.7,0 2.7,4.1 2.8,4.2 0,-4.2 0,-4.1 0.6,0 0.7,0 0,5.3 0,5.3 -0.7,0 -0.7,0 -2.7,-4.2 -2.8,-4.1 -0.1,4.1 0,4.2 -0.6,0 -0.6,0 0,-5.3 z m 125.2,0 0,-5.3 0.7,0 0.7,0 2.8,4.1 2.7,4.2 0,-4.2 0,-4.1 0.7,0 0.6,0 0,5.3 0,5.3 -0.7,0 -0.7,0 -2.7,-4.2 -2.7,-4.1 -0.1,4.1 0,4.2 -0.7,0 -0.6,0 0,-5.3 z m -40.8,-1.6 c -0.3,-0.1 -0.3,-0.4 0.1,-0.9 0.3,-0.4 0.3,-0.4 0.7,-0.1 0.2,0.3 0.2,0.4 0.1,0.8 -0.2,0.3 -0.4,0.4 -0.9,0.2 z m -115.7,-0.6 c -0.2,-0.4 -0.2,-0.5 7.5,-4.9 l 7.7,-4.5 -0.6,-0.3 c -0.6,-0.3 -0.7,-0.5 -0.7,-1.1 0,-0.5 -0.1,-0.7 -0.2,-0.6 -0.2,0 -3.6,2 -7.7,4.4 -6.8,3.9 -7.5,4.3 -7.7,4 -0.1,-0.2 -0.2,-0.4 -0.2,-0.5 0,-0.1 3.6,-2.3 8,-4.8 l 7.8,-4.5 0,-10.7 0,-10.7 -2.7,-1.6 c -1.6,-0.8 -4.7,-2.6 -7,-3.9 l -4.1,-2.4 1.4,-1.8 1.3,-1.9 0.8,0.7 c 0.4,0.4 3,2.8 5.8,5.3 2.7,2.5 5,4.5 5.1,4.5 0.2,0 18.7,-13.5 18.8,-13.6 0,-0.1 -1.3,-4.2 -2.9,-9.2 -1.6,-4.9 -3.2,-9.8 -3.6,-11 l -0.7,-2 -11.7,0 -11.7,0 -2.6,8 c -1.6,5 -2.6,8 -2.8,8 -0.9,0.2 -0.8,-0.1 2,-8.7 l 2.7,-8.4 12.4,0 12.5,0 1.2,4 c 0.7,2.2 2.5,7.5 3.9,11.8 1.5,4.6 2.5,7.9 2.4,8 -0.1,0.1 -4.5,3.3 -9.8,7.1 l -9.5,6.9 0,11.9 0,11.8 7.1,4.2 c 3.9,2.2 7.2,4.2 7.2,4.2 0,0.1 -0.1,0.4 -0.2,0.5 -0.2,0.3 -0.7,0.1 -6.6,-3.3 -5.6,-3.2 -6.3,-3.6 -6.7,-3.4 -0.2,0.1 -3.8,2.1 -7.9,4.5 -4.2,2.4 -7.6,4.4 -7.6,4.4 0,0 -0.2,-0.2 -0.3,-0.4 z m 112.9,-0.6 -0.5,-0.2 0.5,-0.9 c 0.5,-0.8 0.8,-1 1.2,-0.5 0.1,0.2 0.1,0.5 -0.3,1 -0.4,0.7 -0.4,0.8 -0.9,0.6 z m -3,-1.3 -0.4,-0.2 0.6,-1.1 c 0.8,-1.4 0.8,-1.4 1.3,-1.1 0.3,0.3 0.3,0.3 -0.2,1.3 -0.7,1.3 -0.8,1.4 -1.3,1.1 z m -169.1,-5.4 0,-5.3 0.7,0 0.7,0 2.8,4.2 2.8,4.1 0,-4.1 0,-4.2 0.6,0 0.6,0 0,5.3 0,5.3 -0.7,0 -0.6,0 -2.8,-4.1 -2.7,-4.2 0,4.2 -0.1,4.1 -0.6,0 -0.7,0 0,-5.3 z m 166,4.2 c -0.2,-0.3 -0.2,-0.4 0.7,-1.9 l 0.9,-1.6 0.4,0.4 0.4,0.3 -0.8,1.4 c -0.5,0.8 -1,1.5 -1.1,1.5 -0.1,0.1 -0.3,0 -0.5,-0.1 z m -2.9,-1.2 c -0.2,-0.1 -0.3,-0.2 -0.3,-0.3 0,0 0.5,-1 1.1,-2 1.1,-1.9 1.2,-2 1.5,-1.7 0.2,0.2 0.4,0.4 0.4,0.5 0,0.3 -2.1,3.6 -2.3,3.6 -0.1,0 -0.3,-0.1 -0.4,-0.1 z m -10.1,-5.5 0,-5.3 0.7,0 0.7,0 2.7,4.1 2.8,4.2 0,-4.2 0,-4.1 0.7,0 0.6,0 0,5.3 0,5.2 -0.7,0 -0.7,0 -2.7,-4.1 -2.7,-4.1 -0.1,4.1 0,4.1 -0.7,0 -0.6,0 0,-5.2 z m 125.43,0 0,-5.3 0.69,0 0.71,0 2.76,4.1 2.77,4.2 0,-4.2 0,-4.1 0.64,0 0.63,0 0,5.3 0,5.2 -0.69,0 -0.67,0 -2.74,-4.1 -2.73,-4.1 -0.1,4.1 0,4.1 -0.64,0 -0.64,0 0,-5.2 z m -267.53,-0.6 -1,-2.1 0.5,-0.2 c 0.5,-0.2 0.5,-0.2 1.3,1.6 0.5,1 0.9,2 0.9,2.1 0,0.1 -0.2,0.3 -0.4,0.4 -0.3,0.2 -0.4,0.1 -1.3,-1.8 z m -51.6,1.4 c -0.3,-0.2 -0.3,-0.3 0,-0.7 0.3,-0.5 0.3,-0.5 0.7,-0.2 0.4,0.3 0.4,0.3 0.2,0.7 -0.4,0.5 -0.5,0.5 -0.9,0.2 z m 54,-2.6 c -0.8,-1.6 -0.8,-1.8 -0.6,-1.9 0.7,-0.3 0.8,-0.1 1.5,1.5 0.7,1.6 0.8,1.7 0.5,1.9 -0.2,0.1 -0.4,0.3 -0.5,0.3 -0.1,0 -0.5,-0.8 -0.9,-1.8 z m -57,1.4 c -0.2,-0.1 -0.2,-0.3 0.2,-1.1 0.5,-0.9 0.6,-0.9 1,-0.6 l 0.4,0.3 -0.4,0.8 c -0.4,0.7 -0.8,0.9 -1.2,0.6 z m -25.7,-0.9 c 0,-0.6 0.6,-1.4 2.2,-3 1.8,-1.7 2,-1.9 2,-2.5 0,-1.6 -2.7,-2 -3,-0.4 -0.1,0.3 -0.3,0.4 -0.6,0.4 -0.5,-0.1 -0.5,-0.5 -0.1,-1.2 0.5,-0.8 1.5,-1.2 2.5,-1.1 1.1,0.1 1.7,0.6 2,1.5 0.4,1.2 0,2 -2,3.8 -0.8,0.8 -1.6,1.5 -1.6,1.6 0,0.1 0.9,0.2 1.9,0.2 l 1.9,0 0,0.4 0,0.5 -2.6,0 c -1.5,0 -2.6,-0.1 -2.6,-0.2 z m 22.9,-0.2 -0.5,-0.2 0.8,-1.3 c 0.4,-0.7 0.7,-1.2 0.8,-1.2 0,0 0.2,0.1 0.4,0.3 0.3,0.3 0.3,0.3 -0.1,1.1 -0.9,1.4 -0.9,1.4 -1.4,1.3 z m 62.2,-1.4 -0.7,-1.5 0.5,-0.2 c 0.5,-0.1 0.5,-0.1 1.1,1.2 0.6,1.4 0.6,1.4 0.3,1.6 -0.2,0.2 -0.4,0.3 -0.5,0.3 -0.1,0 -0.4,-0.7 -0.7,-1.4 z m -65.1,0.2 c -0.5,-0.1 -0.4,-0.4 0.5,-2 l 0.9,-1.6 0.4,0.4 0.4,0.3 -0.8,1.5 c -0.5,0.8 -0.9,1.5 -1,1.5 -0.1,0 -0.3,-0.1 -0.4,-0.1 z m 67.5,-1.4 c -0.5,-1 -0.5,-1.2 -0.2,-1.3 0.5,-0.2 0.7,-0.1 1.2,0.9 0.4,1 0.4,1.1 0.1,1.3 -0.2,0.1 -0.4,0.2 -0.4,0.2 -0.1,0 -0.4,-0.5 -0.7,-1.1 z m -70.6,0.1 c -0.3,-0.1 -0.2,-0.4 0.8,-2.1 0.6,-1.1 1.2,-2 1.2,-2 0.1,0 0.3,0.1 0.5,0.3 0.3,0.2 0.3,0.3 -0.7,2.1 -1.1,1.8 -1.2,1.9 -1.8,1.7 z m -26.6,-5.5 0,-5.3 0.6,0 0.7,0 0,2.2 0,2.2 2.7,0 2.7,0 0,-2.2 0,-2.2 0.7,0 0.6,0 0,5.3 0,5.3 -0.6,0 -0.7,0 0,-2.5 0,-2.5 -2.7,0 -2.7,0 0,2.5 0,2.5 -0.7,0 -0.6,0 0,-5.3 z m 16.4,0 0,-5.3 0.7,0 0.7,0 2.8,4.1 2.7,4.2 0,-4.2 0,-4.1 0.7,0 0.6,0 0,5.3 0,5.3 -0.7,0 -0.7,0 -2.7,-4.2 -2.7,-4.1 -0.1,4.1 0,4.2 -0.7,0 -0.6,0 0,-5.3 z m 83.2,4.3 -0.4,-0.9 0.5,-0.1 c 0.2,-0.1 0.4,-0.2 0.5,-0.2 0,0 0.2,0.3 0.4,0.7 0.3,0.8 0.3,0.8 0,1 -0.5,0.4 -0.6,0.4 -1,-0.5 z m 2.4,-1.2 c -0.2,-0.5 -0.2,-0.5 0.2,-0.6 0.5,-0.2 0.6,-0.2 0.8,0.3 0.2,0.4 0.1,0.5 -0.2,0.6 -0.5,0.3 -0.6,0.3 -0.8,-0.3 z m 130.3,-5.9 0,-5.2 0.6,0 0.7,0 0,2.1 0,2.2 2.7,0 2.7,0 0,-2.2 0,-2.1 0.7,0 0.6,0 0,5.2 0,5.3 -0.6,0 -0.7,0 0,-2.4 0,-2.5 -2.7,0 -2.7,0 0,2.5 0,2.4 -0.7,0 -0.6,0 0,-5.3 z m 44,-6.6 c -0.3,-0.1 -0.9,-0.4 -1.2,-0.6 -2.5,-1.8 -2.9,-6.4 -0.7,-8.7 1,-1 1.9,-1.3 3.5,-1.3 1.8,0 2.7,0.4 3.7,1.6 1.7,2 1.7,5.8 -0.1,7.7 -1.3,1.4 -3.4,1.9 -5.2,1.3 z m 3.2,-1.4 c 1.4,-0.7 2.1,-2.3 1.9,-4.3 -0.1,-1.8 -0.8,-2.9 -2.1,-3.4 -1.8,-0.8 -3.8,0 -4.6,1.8 -0.4,1 -0.4,3.2 0,4.2 0.4,0.8 1.4,1.7 2.1,1.9 0.9,0.3 1.9,0.2 2.7,-0.2 z m -218.8,-8.3 c -0.4,-0.1 -1,-0.4 -1.3,-0.6 -2.5,-1.7 -2.9,-6.4 -0.6,-8.6 1,-1 1.8,-1.3 3.5,-1.3 1.7,0 2.6,0.3 3.6,1.5 1.7,2.1 1.7,5.8 -0.1,7.8 -1.2,1.3 -3.4,1.8 -5.1,1.2 z m 3.1,-1.4 c 1.4,-0.7 2.1,-2.3 2,-4.3 -0.2,-1.8 -0.9,-2.8 -2.2,-3.4 -1.8,-0.7 -3.7,0.1 -4.5,1.8 -0.5,1 -0.5,3.2 0,4.2 0.3,0.8 1.3,1.8 2,2 0.9,0.2 1.9,0.1 2.7,-0.3 z m 275.3,-0.9 c -0.4,-0.2 -1,-0.5 -1.3,-0.7 -2.5,-1.7 -2.9,-6.4 -0.7,-8.6 1.1,-1 1.9,-1.3 3.6,-1.3 1.7,0 2.6,0.4 3.6,1.6 1.7,2 1.7,5.8 -0.1,7.7 -1.3,1.3 -3.4,1.9 -5.1,1.3 z m 3.1,-1.5 c 1.4,-0.7 2.1,-2.2 2,-4.2 -0.2,-1.8 -0.9,-2.9 -2.2,-3.5 -1.8,-0.7 -3.7,0.1 -4.5,1.9 -0.5,1 -0.5,3.2 0,4.2 0.3,0.8 1.3,1.7 2,1.9 0.9,0.2 1.9,0.2 2.7,-0.3 z m 5.3,-3.7 0,-5.3 0.6,0 0.7,0 0,2.2 0,2.2 2.71,0 2.74,0 0,-2.2 0,-2.2 0.64,0 0.64,0 0,5.3 0,5.3 -0.64,0 -0.64,0 0,-2.5 0,-2.5 -2.74,0 -2.71,0 0,2.5 0,2.5 -0.7,0 -0.6,0 0,-5.3 z m -218.4,-2.2 0,-5.3 0.7,0 0.7,0 2.7,4.1 2.8,4.2 0,-4.2 0,-4.1 0.6,0 0.7,0 0,5.3 0,5.3 -0.7,0 -0.7,0 -2.7,-4.2 -2.8,-4.1 0,4.1 0,4.2 -0.6,0 -0.6,0 0,-5.3 z m -38.4,-3.6 c -0.3,-0.1 -0.9,-0.4 -1.2,-0.6 -2.5,-1.7 -2.9,-6.4 -0.7,-8.6 1.1,-1 1.9,-1.4 3.5,-1.4 1.8,0 2.7,0.4 3.7,1.6 1.7,2.1 1.7,5.8 -0.1,7.8 -1.3,1.3 -3.5,1.8 -5.2,1.2 z m 3.2,-1.4 c 1.4,-0.7 2.1,-2.3 1.9,-4.3 -0.1,-1.8 -0.8,-2.8 -2.1,-3.4 -1.8,-0.7 -3.8,0.1 -4.6,1.8 -0.4,1 -0.4,3.2 0,4.2 0.4,0.8 1.4,1.8 2.1,2 0.9,0.2 1.9,0.1 2.7,-0.3 z"
       id="path3022"
       style="fill:#000000" />
  </g>
</svg>
